<svg id="logo" xmlns="http://www.w3.org/2000/svg" viewBox="0 0 960 960"><defs><style>.cls-1{fill:#df000c;}</style></defs><title>plusCard</title><path class="cls-1" d="M555.19,483.79a17.57,17.57,0,0,1,0,24.47,17.05,17.05,0,0,1-12.39,4.81H499.43v40.58a19,19,0,0,1-5.73,14.25,21.38,21.38,0,0,1-28.81,0,19,19,0,0,1-5.74-14.25V513.07H416.71a17,17,0,0,1-17.35-17.35,15.8,15.8,0,0,1,5-12.09A17.44,17.44,0,0,1,416.71,479h42.44V432.83a19,19,0,0,1,5.74-14.25Q470.62,413,479.6,413a19.1,19.1,0,0,1,19.83,19.83V479H542.8A17.09,17.09,0,0,1,555.19,483.79Z"/></svg>