<?xml version="1.0" encoding="iso-8859-1"?>
<!-- Generator: Adobe Illustrator 22.1.0, SVG Export Plug-In . SVG Version: 6.00 Build 0)  -->
<svg version="1.1" id="logo" xmlns="http://www.w3.org/2000/svg" xmlns:xlink="http://www.w3.org/1999/xlink" x="0px" y="0px"
	 viewBox="0 0 960 960" style="enable-background:new 0 0 960 960;" xml:space="preserve">
<circle cx="480" cy="496" r="178"/>
<g>
	<path style="fill:#FFFFFF;" d="M555.193,486.79c3.302,3.204,4.958,7.28,4.958,12.236c0,4.958-1.655,9.038-4.958,12.237
		c-3.306,3.204-7.435,4.802-12.391,4.802h-43.373v40.583c0,5.786-1.912,10.535-5.732,14.252c-3.824,3.717-8.624,5.575-14.405,5.575
		c-5.785,0-10.587-1.858-14.406-5.575c-3.824-3.717-5.731-8.466-5.731-14.252v-40.583h-42.443c-4.957,0-9.091-1.65-12.393-4.958
		c-3.306-3.301-4.957-7.435-4.957-12.391c0-4.958,1.651-8.984,4.957-12.082c3.302-3.098,7.436-4.647,12.393-4.647h42.443v-46.161
		c0-5.78,1.907-10.533,5.731-14.251c3.819-3.717,8.723-5.576,14.715-5.576c5.78,0,10.533,1.859,14.251,5.576
		c3.717,3.717,5.577,8.471,5.577,14.251v46.161h43.373C547.758,481.988,551.887,483.589,555.193,486.79z"/>
</g>
</svg>
